<?xml version="1.0" encoding="utf-8"?>
<!-- Generator: Adobe Illustrator 16.0.4, SVG Export Plug-In . SVG Version: 6.00 Build 0)  -->
<!DOCTYPE svg PUBLIC "-//W3C//DTD SVG 1.1//EN" "http://www.w3.org/Graphics/SVG/1.1/DTD/svg11.dtd">
<svg version="1.1" id="Layer_1" xmlns="http://www.w3.org/2000/svg" xmlns:xlink="http://www.w3.org/1999/xlink" x="0px" y="0px"
	 width="48px" height="48px" viewBox="0 0 48 48" enable-background="new 0 0 48 48" xml:space="preserve">
<g>
	<path fill="#FF3100" d="M22,10.829V33c0,0.553,0.448,1,1,1h2c0.553,0,1-0.447,1-1V10.829l6.586,6.585l2.828-2.828l-10-10
		c-0.781-0.781-2.047-0.781-2.828,0l-10,10l2.828,2.828L22,10.829z"/>
	<path fill="#FF3100" d="M38,31c-0.553,0-1,0.447-1,1v9H11v-9c0-0.553-0.448-1-1-1s-1,0.447-1,1v10c0,0.553,0.448,1,1,1h28
		c0.553,0,1-0.447,1-1V32C39,31.447,38.553,31,38,31z"/>
</g>
</svg>
