<?xml version="1.0" encoding="utf-8"?>
<!-- Generator: Adobe Illustrator 16.0.4, SVG Export Plug-In . SVG Version: 6.00 Build 0)  -->
<!DOCTYPE svg PUBLIC "-//W3C//DTD SVG 1.1//EN" "http://www.w3.org/Graphics/SVG/1.1/DTD/svg11.dtd">
<svg version="1.1" id="Layer_1" xmlns="http://www.w3.org/2000/svg" xmlns:xlink="http://www.w3.org/1999/xlink" x="0px" y="0px"
	 width="48px" height="48px" viewBox="0 0 48 48" enable-background="new 0 0 48 48" xml:space="preserve">
<g>
	<path fill="none" stroke="#FF3100" stroke-width="2" stroke-miterlimit="10" d="M7.4,38.5c4-4.6,10-7.5,16.6-7.5
		c6.6,0,12.5,2.9,16.5,7.5"/>
	<path fill="none" stroke="#FF3100" stroke-width="2" stroke-miterlimit="10" d="M7.4,9.5c4,4.6,10,7.5,16.6,7.5
		c6.6,0,12.5-2.9,16.5-7.5"/>
	<path fill="none" stroke="#FF3100" stroke-width="2" stroke-miterlimit="10" d="M24,46c7.8-3.7,12-12.2,12-22S31.8,5.7,24,2"/>
	<path fill="none" stroke="#FF3100" stroke-width="2" stroke-miterlimit="10" d="M24,46c-7.8-3.7-12-12.2-12-22S16.2,5.7,24,2"/>
	<polyline fill="none" stroke="#FF3100" stroke-width="2" stroke-miterlimit="10" points="24,46 24,44 24,4 24,2 	"/>
	<line fill="none" stroke="#FF3100" stroke-width="2" stroke-miterlimit="10" x1="2" y1="24" x2="46" y2="24"/>
	<circle fill="none" stroke="#FF3100" stroke-width="2" stroke-linecap="square" stroke-miterlimit="10" cx="24" cy="24" r="22"/>
</g>
</svg>
