<?xml version="1.0" encoding="utf-8"?>
<!-- Generator: Adobe Illustrator 16.0.4, SVG Export Plug-In . SVG Version: 6.00 Build 0)  -->
<!DOCTYPE svg PUBLIC "-//W3C//DTD SVG 1.1//EN" "http://www.w3.org/Graphics/SVG/1.1/DTD/svg11.dtd">
<svg version="1.1" id="Layer_1" xmlns="http://www.w3.org/2000/svg" xmlns:xlink="http://www.w3.org/1999/xlink" x="0px" y="0px"
	 width="48px" height="48px" viewBox="0 0 48 48" enable-background="new 0 0 48 48" xml:space="preserve">
<g>
	<path fill="#FF3100" d="M22,4c0.171,1.886,3.8,3.175,5,5c1.6,2.432,1,5,3,5c1.059,0,4.101,0.071,11.928-4.384
		C37.709,4.368,31.242,1,24,1c-0.515,0-1.025,0.023-1.532,0.057C22.181,1.785,21.889,2.782,22,4z"/>
	<path fill="#FF3100" d="M12,38c1.142-1.912,2.094-4.908,0-8c-1.393-2.057-4-4.158-4-6c0-2.447,5.946-3.344,8-6
		c1.816-2.348-0.165-6.508-1.057-8.002c-0.908-1.521-3.005-3.47-4.436-4.606C4.751,9.576,1,16.356,1,24
		c0,6.904,3.062,13.103,7.895,17.322C10.042,40.346,11.544,38.765,12,38z"/>
	<path d="M41.928,9.616C34.101,14.071,31.059,14,30,14c-2,0-1.4-2.568-3-5c-1.2-1.825-4.829-3.114-5-5
		c-0.111-1.218,0.181-2.215,0.468-2.943c-4.45,0.294-8.556,1.858-11.961,4.334c1.431,1.136,3.528,3.085,4.436,4.606
		C15.835,11.492,17.816,15.652,16,18c-2.054,2.656-8,3.553-8,6c0,1.842,2.607,3.943,4,6c2.094,3.092,1.142,6.088,0,8
		c-0.456,0.765-1.958,2.346-3.105,3.322C12.939,44.854,18.222,47,24,47c12.682,0,23-10.318,23-23
		C47,18.56,45.098,13.558,41.928,9.616z M26,38c-3-2,0.5-4.666-1.972-12.193c-1.034-3.148,3.134-6,7-6s6.955,2.687,7,6
		C38.111,31.974,29.67,40.446,26,38z"/>
	<path fill="#FF3100" d="M31.028,19.807c-3.866,0-8.034,2.852-7,6C26.5,33.334,23,36,26,38c3.67,2.446,12.111-6.026,12.028-12.193
		C37.983,22.494,34.895,19.807,31.028,19.807z"/>
</g>
</svg>
